<?xml version="1.0" encoding="UTF-8" standalone="no"?>
<!-- Created with Inkscape (http://www.inkscape.org/) -->

<svg
   xmlns:dc="http://purl.org/dc/elements/1.1/"
   xmlns:cc="http://creativecommons.org/ns#"
   xmlns:rdf="http://www.w3.org/1999/02/22-rdf-syntax-ns#"
   xmlns:svg="http://www.w3.org/2000/svg"
   xmlns="http://www.w3.org/2000/svg"
   xmlns:sodipodi="http://sodipodi.sourceforge.net/DTD/sodipodi-0.dtd"
   xmlns:inkscape="http://www.inkscape.org/namespaces/inkscape"
   width="48px"
   height="48px"
   id="svg15334"
   version="1.1"
   inkscape:version="0.48.3.1 r9886"
   sodipodi:docname="demo5.svg"
   inkscape:export-filename="/home/futurenode/workspace/Focus/wear/src/main/res/drawable/demo5.png"
   inkscape:export-xdpi="750"
   inkscape:export-ydpi="750">
  <defs
     id="defs15336">
    <clipPath
       clipPathUnits="userSpaceOnUse"
       id="clipPath4464-3">
      <rect
         style="opacity:0.20987657;fill:#000000;fill-opacity:1;fill-rule:nonzero;stroke:#000000;stroke-width:0.1;stroke-miterlimit:4;stroke-opacity:1;stroke-dasharray:none"
         id="rect4466-0"
         width="8.0617075"
         height="13.994227"
         x="34.547348"
         y="20.68848" />
    </clipPath>
    <clipPath
       clipPathUnits="userSpaceOnUse"
       id="clipPath4429-8">
      <path
         style="fill:none;stroke:#000000;stroke-width:0.1;stroke-linecap:butt;stroke-linejoin:miter;stroke-miterlimit:4;stroke-opacity:1;stroke-dasharray:none"
         d="m 12.727923,16.622135 c 0.06973,0.07439 0.186108,0.07329 0.265165,0.132583 0.176776,0.132582 0.0221,0.04419 0.132582,0.132582 0.05752,0.04601 0.11926,0.08657 0.176777,0.132583 0.01627,0.01301 0.03488,0.02556 0.04419,0.04419 0.04775,0.09551 -0.07795,-0.0093 0.04419,0.08839 0.558151,0.446521 -0.04787,-0.03192 0.265165,0.176777 0.101531,0.06769 -0.01895,0.02524 0.08839,0.132583 0.01042,0.01042 0.03102,-0.0066 0.04419,0 0.01863,0.0093 0.02686,0.03264 0.04419,0.04419 0.02741,0.01827 0.0651,0.0209 0.08839,0.04419 0.01042,0.01042 -0.01042,0.03378 0,0.04419 0.01042,0.01042 0.03378,-0.01042 0.0442,0 0.09144,0.09144 -0.139732,-0.0036 0.04419,0.08839 0.01318,0.0066 0.03378,-0.01042 0.04419,0 0.09144,0.09144 -0.139731,-0.0036 0.04419,0.08839 0.01318,0.0066 0.03378,-0.01042 0.04419,0 0.02329,0.02329 0.0209,0.0651 0.04419,0.08839 0.01042,0.01042 0.03378,-0.01042 0.0442,0 0.01042,0.01042 -0.01042,0.03378 0,0.04419 0.01042,0.01042 0.03378,-0.01042 0.04419,0 0.01042,0.01042 -0.01042,0.03378 0,0.04419 0.01042,0.01042 0.03378,-0.01042 0.04419,0 0.01042,0.01042 -0.0066,0.03102 0,0.0442 0.0093,0.01863 0.03488,0.02556 0.04419,0.04419 0.0092,0.01844 -0.01029,0.0781 0,0.08839 0.01042,0.01042 0.03378,-0.01042 0.04419,0 0.01029,0.01029 -0.0092,0.06995 0,0.08839 0.0093,0.01863 0.03488,0.02556 0.04419,0.04419 0.0092,0.01844 -0.01029,0.0781 0,0.08839 0.01042,0.01042 0.03378,-0.01042 0.0442,0 0.01042,0.01042 -0.01042,0.03378 0,0.04419 0.01042,0.01042 0.03378,-0.01042 0.04419,0 0.09144,0.09144 -0.139732,-0.0036 0.04419,0.08839 0.01318,0.0066 0.03378,-0.01042 0.04419,0 0.01042,0.01042 -0.01042,0.03378 0,0.04419 0.01042,0.01042 0.03102,-0.0066 0.04419,0 0.01863,0.0093 0.02946,0.02946 0.0442,0.04419 0.04419,0.04419 0.08839,0.08839 0.132582,0.132582 0.02946,0.02946 0.05506,0.06339 0.08839,0.08839 0.02635,0.01976 0.0651,0.0209 0.08839,0.04419 0.01042,0.01042 0,0.02946 0,0.04419 0.02946,0.02946 0.05372,0.06528 0.08839,0.08839 0.01226,0.0082 0.03378,-0.01042 0.04419,0 0.01042,0.01042 -0.0066,0.03102 0,0.04419 0.0093,0.01863 0.03264,0.02686 0.04419,0.04419 0.01827,0.02741 0.0209,0.0651 0.0442,0.08839 0.01042,0.01042 0.03378,-0.01042 0.04419,0 0.02329,0.02329 0.02592,0.06098 0.04419,0.08839 0.01156,0.01733 0.02946,0.02946 0.04419,0.04419 0.01473,0.01473 0.02946,0.02946 0.04419,0.04419 0.02946,0.02946 0.05372,0.06528 0.08839,0.08839 0.01226,0.0082 0.03102,-0.0066 0.04419,0 0.01863,0.0093 0.02946,0.02946 0.04419,0.04419 0.01473,0.01473 0.02946,0.02946 0.04419,0.04419 0.02946,0.02946 0.05112,0.06975 0.08839,0.08839 0.02635,0.01318 0.06044,-0.0093 0.08839,0 0.01976,0.0066 0.02485,0.03646 0.04419,0.04419 0.05639,0.02256 0.119155,0.02499 0.176777,0.04419 0.03125,0.01042 0.0578,0.03196 0.08839,0.04419 0.04325,0.0173 0.09092,0.02336 0.132583,0.04419 0.01863,0.0093 0.02556,0.03488 0.04419,0.04419 0.07096,0.03548 0.146691,0.06053 0.220971,0.08839 0.0598,0.09107 0.14971,0.02044 0.220971,0.04419 0.0625,0.02083 0.116222,0.06244 0.176776,0.08839 0.04282,0.01835 0.08933,0.02689 0.132583,0.04419 0.03058,0.01223 0.05643,0.0362 0.08839,0.04419 0.02858,0.0071 0.0608,-0.01035 0.08839,0 0.13131,0.02895 0.231215,0.127842 0.353553,0.176777 0.04325,0.0173 0.08933,0.02689 0.132582,0.04419 0.03058,0.01223 0.05893,0.02946 0.08839,0.04419 0.07366,0.02946 0.146691,0.06053 0.220971,0.08839 0.04362,0.01636 0.08933,0.02689 0.132582,0.0442 0.03058,0.01223 0.05893,0.02946 0.08839,0.04419 0.05892,0.02946 0.117851,0.05893 0.176776,0.08839 0.02946,0.01473 0.05714,0.03378 0.08839,0.04419 0.01397,0.0047 0.03022,-0.0047 0.04419,0 0.03125,0.01042 0.05545,0.04419 0.08839,0.04419 0.05893,0 -0.07366,-0.10312 0.04419,-0.04419 0.01863,0.0093 0.02556,0.03488 0.04419,0.04419 0.01318,0.0066 0.02946,0 0.04419,0 0.01473,0 0.02946,0 0.04419,0 0.01473,0 0.03022,-0.0047 0.04419,0 0.03125,0.01042 0.05714,0.03378 0.08839,0.04419 0.01398,0.0047 0.04419,-0.01473 0.04419,0 0,0.01473 -0.05893,0 -0.04419,0 0.02946,0 0.05893,0 0.08839,0 0.01473,0 0.02946,0 0.04419,0 0.01473,0 0.03378,0.01042 0.04419,0 0.01042,-0.01042 -0.01473,-0.04419 0,-0.04419 0.01473,0 -0.01473,0.04419 0,0.04419 0.02083,0 0.02556,-0.03488 0.04419,-0.04419 0.01318,-0.0066 0.02946,0 0.04419,0 0.01473,0 0.02946,0 0.0442,0 0.05892,0 0.117851,0 0.176776,0 0.01473,0 0.0442,-0.01473 0.0442,0 0,0.01473 -0.05461,0.01042 -0.0442,0 0.02329,-0.02329 0.05714,-0.03378 0.08839,-0.04419 0.01397,-0.0047 0.02946,0 0.04419,0 0.01473,0 0.02946,0 0.04419,0 0.01473,0 0.03378,0.01042 0.04419,0 0.01042,-0.01042 -0.01042,-0.03378 0,-0.04419 0.02083,-0.02083 0.06755,0.02083 0.08839,0 0.01042,-0.01042 -0.01042,-0.03378 0,-0.04419 0.01042,-0.01042 0.04419,-0.01473 0.04419,0 0,0.01473 -0.05893,0 -0.04419,0 0.02946,0 0.05892,0 0.08839,0 0.01473,0 0.02946,0 0.04419,0 0.01473,0 0.03378,0.01042 0.04419,0 0.01042,-0.01042 -0.01473,-0.04419 0,-0.04419 0.01473,0 -0.01473,0.04419 0,0.04419 0.02083,0 0.02556,-0.03488 0.04419,-0.04419 0.01318,-0.0066 0.02946,0 0.04419,0 0.01473,0 0.02946,0 0.04419,0 0.01473,0 0.04419,-0.01473 0.04419,0 0,0.01473 -0.05893,0 -0.04419,0 0.02946,0 0.05892,0 0.08839,0 0.01473,0 0.04419,-0.01473 0.04419,0 0,0.01473 -0.05892,0 -0.04419,0 0.02946,0 0.05893,0 0.08839,0 0.01473,0 0.03378,0.01042 0.04419,0 0.01042,-0.01042 -0.01473,-0.04419 0,-0.04419 0.01473,0 -0.01473,0.04419 0,0.04419 0.02083,0 0.02556,-0.03488 0.04419,-0.04419 0.01318,-0.0066 0.04419,-0.01473 0.04419,0 0,0.01473 -0.05893,0 -0.04419,0 0.05892,0 0.117851,0 0.176777,0 0.01473,0 0.04419,-0.01473 0.04419,0 0,0.01473 -0.05893,0 -0.04419,0 0.04419,0 0.08839,0 0.132582,0 0.01473,0 0.04419,-0.01473 0.04419,0 0,0.01473 -0.05893,0 -0.04419,0 0.02946,0 0.05893,0 0.08839,0 0.01473,0 0.0442,-0.01473 0.0442,0 0,0.01473 -0.05893,0 -0.0442,0 0.02946,0 0.05893,0 0.08839,0 0.01473,0 0.04419,-0.01473 0.04419,0 0,0.01473 -0.04419,0.01473 -0.04419,0 0,-0.02083 0.02556,-0.03488 0.04419,-0.0442 0.01318,-0.0066 0.02946,0 0.04419,0 0.02946,0 0.05893,0 0.08839,0 0.08839,0 0.176776,0 0.265165,0 0.01473,0 0.02946,0 0.04419,0 0.01473,0 0.03378,0.01042 0.04419,0 0.01042,-0.01042 -0.01042,-0.03378 0,-0.04419 0.01042,-0.01042 0.02946,0 0.04419,0 0.10312,0 0.20624,0 0.309359,0 0.05893,0 0.117851,0 0.176777,0 0.01473,0 0.04419,-0.01473 0.04419,0 0,0.01473 -0.05893,0 -0.04419,0 0.02946,0 0.05893,0 0.08839,0 0.01473,0 0.0442,-0.01473 0.0442,0 0,0.01473 -0.05893,0 -0.0442,0 0.250434,0 0.01473,-0.02946 0.08839,0.04419 0.01042,0.01042 0.04419,-0.01473 0.04419,0 0,0.01473 -0.04419,0.01473 -0.04419,0 0,-0.02083 0.02946,-0.02946 0.04419,-0.04419 0.0086,-0.0086 0.05587,-0.07671 0.08839,-0.04419 0.01042,0.01042 -0.01042,0.03378 0,0.04419 0.01042,0.01042 0.04419,0.01473 0.04419,0 0,-0.02083 -0.06503,-0.04419 -0.04419,-0.04419 0.03294,0 0.05714,0.03378 0.08839,0.04419 0.01397,0.0047 0.02946,0 0.04419,0 0.02946,0 0.05892,0 0.08839,0 0.01473,0 0.04419,-0.01473 0.04419,0 0,0.01473 -0.05893,0 -0.04419,0 0.02946,0 0.06204,0.01318 0.08839,0 0.01318,-0.0066 -0.01042,-0.03378 0,-0.04419 0.01042,-0.01042 0.02946,0 0.0442,0 0.01473,0 0.02946,0 0.04419,0 0.01473,0 0.03378,0.01042 0.04419,0 0.01042,-0.01042 -0.01042,-0.03378 0,-0.04419 0.01042,-0.01042 0.04419,-0.01473 0.04419,0 0,0.01473 -0.05892,0 -0.04419,0 0.08839,0 0.176777,0 0.265165,0 0.01473,0 0.03378,0.01042 0.04419,0 0.01042,-0.01042 -0.01042,-0.03378 0,-0.04419 0.02083,-0.02083 0.06756,0.02083 0.08839,0 0.01042,-0.01042 -0.01473,-0.04419 0,-0.04419 0.01473,0 -0.01473,0.04419 0,0.04419 0.02083,0 0.03488,-0.02556 0.04419,-0.04419 0.0066,-0.01318 -0.01473,-0.0442 0,-0.0442 0.01473,0 -0.01473,0.0442 0,0.0442 0.02083,0 0.02556,-0.03488 0.04419,-0.0442 0.01318,-0.0066 0.03378,0.01042 0.04419,0 0.01042,-0.01042 -0.01473,-0.04419 0,-0.04419 0.01473,0 -0.01473,0.04419 0,0.04419 0.09196,0 0.01778,-0.06198 0.04419,-0.08839 0.02083,-0.02083 0.06756,0.02083 0.08839,0 0.01042,-0.01042 -0.01042,-0.03378 0,-0.04419 0.01042,-0.01042 0.03378,0.01042 0.04419,0 0.01042,-0.01042 -0.01042,-0.03378 0,-0.04419 0.01042,-0.01042 0.02946,0 0.04419,0 0.01473,0 0.02946,0 0.04419,0 0.01473,0 0.04419,-0.01473 0.04419,0 0,0.01473 -0.05892,0 -0.04419,0 0.04419,0 0.08839,0 0.132583,0 0.01473,0 0.04419,-0.01473 0.04419,0 0,0.01473 -0.05893,0 -0.04419,0 0.02946,0 0.05892,0 0.08839,0 0.01473,0 0.04419,-0.01473 0.04419,0 0,0.01473 -0.04419,0.01473 -0.04419,0 0,-0.02083 0.02556,-0.03488 0.04419,-0.04419 0.01318,-0.0066 0.02946,0 0.04419,0 0.01473,0 0.02946,0 0.0442,0 0.01473,0 0.03378,0.01042 0.04419,0 0.01042,-0.01042 -0.01473,-0.04419 0,-0.04419 0.01473,0 -0.01473,0.04419 0,0.04419 0.09196,0 0.01778,-0.06198 0.04419,-0.08839 0.01042,-0.01042 0.03378,0.01042 0.04419,0 0.01042,-0.01042 0,-0.02946 0,-0.04419 0,-0.01473 0,-0.02946 0,-0.04419 0,-0.01473 -0.0066,-0.03102 0,-0.04419 0.02731,-0.05461 0.04267,-0.04419 0.08839,-0.04419 0.01473,0 0.03378,0.01042 0.04419,0 0.01042,-0.01042 -0.01473,-0.04419 0,-0.04419 0.01321,0 -0.02909,0.146574 0.04419,0 0.0066,-0.01318 -0.01473,-0.04419 0,-0.04419 0.01321,0 -0.02909,0.146574 0.04419,0 0.0066,-0.01318 0,-0.02946 0,-0.04419 0,-0.01473 0,-0.02946 0,-0.04419 0,-0.04419 0,-0.08839 0,-0.132583 0,-0.01473 0.01042,-0.03378 0,-0.04419 -0.01042,-0.01042 -0.03378,0.01042 -0.04419,0 -0.01042,-0.01042 0,-0.02946 0,-0.04419 0,-0.01473 0,-0.02946 0,-0.04419 0,-0.01473 -0.01042,-0.03378 0,-0.04419 0.01042,-0.01042 0.03378,0.01042 0.04419,0 0.01042,-0.01042 -0.01042,-0.03378 0,-0.0442 0.01042,-0.01042 0.03378,-0.01042 0.04419,0 0.01042,0.01042 -0.01042,0.03378 0,0.0442 0.01042,0.01042 0.03378,0.01042 0.04419,0 0.01042,-0.01042 -0.01473,-0.0442 0,-0.0442 0.01473,0 0,0.02946 0,0.0442 0.01473,-0.01473 0.02556,-0.03488 0.04419,-0.0442 0.01318,-0.0066 0.04419,-0.01473 0.04419,0 0,0.01473 -0.05893,0 -0.04419,0 0.05893,0 0.117851,0 0.176776,0 0.01473,0 0.02946,0 0.04419,0 0.01473,0 0.04419,-0.01473 0.04419,0 0,0.01473 -0.05893,0 -0.04419,0 0.250434,0 0.01473,0.02946 0.08839,-0.04419 0.01042,-0.01042 0.02946,0 0.04419,0 0.01473,0 0.02946,0 0.04419,0 0.01473,0 0.03378,0.01042 0.04419,0 0.01042,-0.01042 -0.01042,-0.03378 0,-0.04419 0.01042,-0.01042 0.04419,-0.01473 0.04419,0 0,0.01473 -0.05892,0 -0.04419,0 0.05893,0 0.117851,0 0.176777,0 0.162045,0 0.324091,0 0.486136,0 0.168816,0 0.0069,-0.0093 0.220971,0.04419 0.01429,0.0036 0.02946,0 0.04419,0 0.02946,0 0.05893,0 0.08839,0 0.04419,0 0.08925,-0.0087 0.132583,0 0.0323,0.0065 0.05609,0.03773 0.08839,0.04419 0.0038,7.64e-4 0.259106,-7.57e-4 0.265165,0 0.07454,0.0093 0.146878,0.03185 0.220971,0.0442 0.01453,0.0024 0.02946,0 0.04419,0 0.08839,0 0.176777,0 0.265165,0 0.147314,0 0.294628,0 0.441942,0 0.05893,0 0.117851,0 0.176777,0 0.05893,0 0.118306,0.0073 0.176777,0 0.06027,-0.0075 0.116247,-0.03915 0.176776,-0.0442 0.117444,-0.0098 0.23651,0.01377 0.353554,0 0.134886,-0.01587 0.263296,-0.06918 0.397747,-0.08839 0.07292,-0.01042 0.147765,0.0081 0.220971,0 0.06037,-0.0067 0.116744,-0.03496 0.176777,-0.04419 0.131847,-0.02028 0.2659,-0.02391 0.397747,-0.04419 0.06003,-0.0092 0.117852,-0.02946 0.176777,-0.04419 0.05893,-0.01473 0.118375,-0.02751 0.176777,-0.0442 0.04479,-0.0128 0.08764,-0.03194 0.132582,-0.04419 0.175797,-0.04794 0.353554,-0.08839 0.53033,-0.132582 0.05893,-0.01473 0.119695,-0.02344 0.176777,-0.04419 0.105436,-0.03834 0.206838,-0.08702 0.309359,-0.132582 0.0301,-0.01338 0.05893,-0.02946 0.08839,-0.04419 0.02946,-0.01473 0.05684,-0.03473 0.08839,-0.04419 0.33525,-0.100575 0.321672,-0.05796 0.618719,-0.176777 0.06117,-0.02447 0.11509,-0.06526 0.176776,-0.08839 0.05687,-0.02133 0.117851,-0.02946 0.176777,-0.04419 0.132582,-0.07366 0.258342,-0.161225 0.397748,-0.220971 0.06904,-0.02959 0.147643,-0.0279 0.22097,-0.04419 0.05929,-0.01318 0.119905,-0.02287 0.176777,-0.04419 0.06169,-0.02313 0.114277,-0.06755 0.176777,-0.08839 0.07126,-0.02375 0.147644,-0.0279 0.220971,-0.04419 0.05929,-0.01318 0.118374,-0.02751 0.176776,-0.0442 0.04479,-0.0128 0.08839,-0.02946 0.132583,-0.04419 0.132582,-0.04419 0.265165,-0.08839 0.397747,-0.132582 0.0442,-0.01473 0.08779,-0.0314 0.132583,-0.04419 0.116804,-0.03337 0.236356,-0.05643 0.353553,-0.08839 0.577911,-0.157612 0.0863,-0.03262 0.486136,-0.132582 0.05893,-0.01473 0.117851,-0.02946 0.176777,-0.04419 0.05893,-0.01473 0.119155,-0.02499 0.176777,-0.04419 0.119406,-0.0398 0.235266,-0.08957 0.353553,-0.132582 0.04378,-0.01592 0.08976,-0.02584 0.132583,-0.04419 0.542358,-0.23244 -0.13448,0.04514 0.309359,-0.176777 0.07096,-0.03548 0.152092,-0.04903 0.220971,-0.08839 0.03618,-0.02067 0.05893,-0.05893 0.08839,-0.08839 0.01473,-0.01473 0.02946,-0.02946 0.04419,-0.04419 0.01473,-0.01473 0.02753,-0.03169 0.0442,-0.04419 0.04249,-0.03187 0.09502,-0.05083 0.132582,-0.08839 0.03756,-0.03756 0.05893,-0.08839 0.08839,-0.132582 0.05712,-0.08568 0.148742,-0.211235 0.176777,-0.309359 0.01214,-0.04249 0,-0.08839 0,-0.132583 0,-0.01473 0,-0.02946 0,-0.04419 0,-0.05893 0.01054,-0.118802 0,-0.176777 -0.25227,-0.882947 -0.0072,0.08191 -0.08839,-0.486136 -0.0065,-0.04574 -0.05736,-0.174423 -0.08839,-0.22097 -0.01156,-0.01734 -0.03386,-0.02611 -0.04419,-0.0442 -0.422771,-0.845542 0.06544,0.103468 -0.220971,-0.397747 -0.03269,-0.0572 -0.0501,-0.123168 -0.08839,-0.176777 -0.03633,-0.05086 -0.08839,-0.08839 -0.132583,-0.132582 -0.08839,-0.08839 -0.176776,-0.176777 -0.265165,-0.265166 -0.04419,-0.04419 -0.08839,-0.08839 -0.132582,-0.132582 -0.02946,-0.02946 -0.05638,-0.06171 -0.08839,-0.08839 -0.08589,-0.07157 -0.44763,-0.325549 -0.486136,-0.353554 -0.05957,-0.04332 -0.114316,-0.09354 -0.176777,-0.132582 -0.05587,-0.03492 -0.123167,-0.0501 -0.176777,-0.08839 -0.05086,-0.03633 -0.07985,-0.09903 -0.132582,-0.132582 -0.111163,-0.07074 -0.235703,-0.117851 -0.353554,-0.176777 -0.147314,-0.07366 -0.294628,-0.147314 -0.441942,-0.220971 -0.583853,-0.291926 -0.289019,-0.159802 -0.883883,-0.397747 -0.147314,-0.05893 -0.289727,-0.132008 -0.441942,-0.176777 -0.09993,-0.02939 -0.2092,-0.01558 -0.309359,-0.04419 C 32.065252,11.950973 31.973168,11.874074 31.863767,11.84921 31.646384,11.7998 31.420747,11.79747 31.200854,11.76082 31.066885,11.73849 30.937075,11.69476 30.803107,11.67243 30.671523,11.6505 30.536473,11.65282 30.405359,11.62824 30.29995,11.60848 30.200865,11.56232 30.096,11.53985 29.994145,11.51802 29.889532,11.5119 29.78664,11.49566 c -0.177022,-0.02795 -0.35428,-0.05485 -0.53033,-0.08839 -0.133418,-0.02541 -0.262761,-0.07339 -0.397747,-0.08839 -0.131772,-0.01464 -0.265369,0.0074 -0.397748,0 -0.133193,-0.0074 -0.265108,-0.02998 -0.397747,-0.04419 -0.279842,-0.02998 -0.558914,-0.06902 -0.83969,-0.08839 -0.146965,-0.01014 -0.294628,0 -0.441941,0 -0.132583,0 -0.265166,0 -0.397748,0 -0.162045,0 -0.324091,0 -0.486136,0 -0.250434,0 -0.501355,-0.01562 -0.751301,0 -0.222492,0.01391 -0.44048,0.07356 -0.662913,0.08839 -0.220481,0.0147 -0.442231,-0.01132 -0.662912,0 -0.354314,0.01817 -0.706428,0.06871 -1.06066,0.08839 -0.176505,0.0098 -0.353721,-0.0077 -0.530331,0 -0.16256,0.0071 -0.323625,0.03607 -0.486136,0.04419 -1.040531,0.05203 0.510779,-0.144944 -1.414213,0.08839 -0.14914,0.01808 -0.294134,0.06151 -0.441942,0.08839 -0.176324,0.03206 -0.353553,0.05893 -0.53033,0.08839 -0.176777,0.02946 -0.352758,0.06417 -0.53033,0.08839 -0.700039,0.09546 -0.49145,-0.02077 -1.458408,0.220971 -0.379643,0.09491 -0.531414,0.250614 -0.883883,0.309359 -0.24873,0.04146 -0.501863,0.05143 -0.751301,0.08839 -0.664957,0.09851 -0.224131,0.06574 -0.883884,0.220971 -0.603023,0.141888 -0.121098,-0.137504 -1.06066,0.265165 -0.0766,0.03283 -0.114493,0.121413 -0.176777,0.176777 -0.0705,0.06267 -0.140636,0.12734 -0.220971,0.176777 -0.112216,0.06906 -0.238713,0.112179 -0.353553,0.176776 -0.09212,0.05182 -0.506609,0.316214 -0.618719,0.397748 -0.178906,0.130114 -0.49007,0.410258 -0.618718,0.53033 -0.09138,0.08529 -0.173021,0.1807 -0.265165,0.265165 -0.08481,0.07775 -0.18777,0.135837 -0.265165,0.220971 -0.07146,0.0786 -0.108159,0.184071 -0.176777,0.265165 -0.0942,0.111327 -0.21926,0.194688 -0.309359,0.309359 -0.07338,0.09339 -0.113013,0.209159 -0.176777,0.309359 -0.03954,0.06214 -0.08736,0.118636 -0.132582,0.176777 -0.111412,0.143244 -0.267746,0.298876 -0.30936,0.486136 -0.0101,0.04548 0.02336,0.09092 0.0442,0.132583 0.08839,0.176776 0.07366,0.103119 0.22097,0.220971 0.03254,0.02603 0.05506,0.06339 0.08839,0.08839 0.02635,0.01976 0.06014,0.02725 0.08839,0.04419 0.154309,0.09258 0.09713,0.09058 0.265165,0.132583 0.01429,0.0036 0.02946,0 0.04419,0 0.05893,0 0.117852,0 0.176777,0 0.08839,0 0.177317,0.0098 0.265165,0 0.0463,-0.0051 0.08663,-0.03654 0.132583,-0.04419 0.04359,-0.0073 0.08839,0 0.132582,0 0.08839,-0.01473 0.177692,-0.02475 0.265165,-0.04419 0.09095,-0.02021 0.173805,-0.07012 0.265165,-0.08839 0.02889,-0.0058 0.05893,0 0.08839,0 0.01473,0 0.03102,0.0066 0.04419,0 0.01863,-0.0093 0.02556,-0.03488 0.04419,-0.04419 0.01318,-0.0066 0.02946,0 0.04419,0 0.01473,0 0.02946,0 0.04419,0 0.02946,0 0.06131,0.01161 0.08839,0 0.07895,-0.03384 0.147314,-0.08839 0.220971,-0.132583 z"
         id="path4431-3"
         inkscape:connector-curvature="0" />
    </clipPath>
    <clipPath
       clipPathUnits="userSpaceOnUse"
       id="clipPath4464-3-7">
      <rect
         style="opacity:0.20987657;fill:#000000;fill-opacity:1;fill-rule:nonzero;stroke:#000000;stroke-width:0.1;stroke-miterlimit:4;stroke-opacity:1;stroke-dasharray:none"
         id="rect4466-0-5"
         width="8.0617075"
         height="13.994227"
         x="34.547348"
         y="20.68848" />
    </clipPath>
    <clipPath
       clipPathUnits="userSpaceOnUse"
       id="clipPath4429-8-7">
      <path
         style="fill:none;stroke:#000000;stroke-width:0.1;stroke-linecap:butt;stroke-linejoin:miter;stroke-miterlimit:4;stroke-opacity:1;stroke-dasharray:none"
         d="m 12.727923,16.622135 c 0.06973,0.07439 0.186108,0.07329 0.265165,0.132583 0.176776,0.132582 0.0221,0.04419 0.132582,0.132582 0.05752,0.04601 0.11926,0.08657 0.176777,0.132583 0.01627,0.01301 0.03488,0.02556 0.04419,0.04419 0.04775,0.09551 -0.07795,-0.0093 0.04419,0.08839 0.558151,0.446521 -0.04787,-0.03192 0.265165,0.176777 0.101531,0.06769 -0.01895,0.02524 0.08839,0.132583 0.01042,0.01042 0.03102,-0.0066 0.04419,0 0.01863,0.0093 0.02686,0.03264 0.04419,0.04419 0.02741,0.01827 0.0651,0.0209 0.08839,0.04419 0.01042,0.01042 -0.01042,0.03378 0,0.04419 0.01042,0.01042 0.03378,-0.01042 0.0442,0 0.09144,0.09144 -0.139732,-0.0036 0.04419,0.08839 0.01318,0.0066 0.03378,-0.01042 0.04419,0 0.09144,0.09144 -0.139731,-0.0036 0.04419,0.08839 0.01318,0.0066 0.03378,-0.01042 0.04419,0 0.02329,0.02329 0.0209,0.0651 0.04419,0.08839 0.01042,0.01042 0.03378,-0.01042 0.0442,0 0.01042,0.01042 -0.01042,0.03378 0,0.04419 0.01042,0.01042 0.03378,-0.01042 0.04419,0 0.01042,0.01042 -0.01042,0.03378 0,0.04419 0.01042,0.01042 0.03378,-0.01042 0.04419,0 0.01042,0.01042 -0.0066,0.03102 0,0.0442 0.0093,0.01863 0.03488,0.02556 0.04419,0.04419 0.0092,0.01844 -0.01029,0.0781 0,0.08839 0.01042,0.01042 0.03378,-0.01042 0.04419,0 0.01029,0.01029 -0.0092,0.06995 0,0.08839 0.0093,0.01863 0.03488,0.02556 0.04419,0.04419 0.0092,0.01844 -0.01029,0.0781 0,0.08839 0.01042,0.01042 0.03378,-0.01042 0.0442,0 0.01042,0.01042 -0.01042,0.03378 0,0.04419 0.01042,0.01042 0.03378,-0.01042 0.04419,0 0.09144,0.09144 -0.139732,-0.0036 0.04419,0.08839 0.01318,0.0066 0.03378,-0.01042 0.04419,0 0.01042,0.01042 -0.01042,0.03378 0,0.04419 0.01042,0.01042 0.03102,-0.0066 0.04419,0 0.01863,0.0093 0.02946,0.02946 0.0442,0.04419 0.04419,0.04419 0.08839,0.08839 0.132582,0.132582 0.02946,0.02946 0.05506,0.06339 0.08839,0.08839 0.02635,0.01976 0.0651,0.0209 0.08839,0.04419 0.01042,0.01042 0,0.02946 0,0.04419 0.02946,0.02946 0.05372,0.06528 0.08839,0.08839 0.01226,0.0082 0.03378,-0.01042 0.04419,0 0.01042,0.01042 -0.0066,0.03102 0,0.04419 0.0093,0.01863 0.03264,0.02686 0.04419,0.04419 0.01827,0.02741 0.0209,0.0651 0.0442,0.08839 0.01042,0.01042 0.03378,-0.01042 0.04419,0 0.02329,0.02329 0.02592,0.06098 0.04419,0.08839 0.01156,0.01733 0.02946,0.02946 0.04419,0.04419 0.01473,0.01473 0.02946,0.02946 0.04419,0.04419 0.02946,0.02946 0.05372,0.06528 0.08839,0.08839 0.01226,0.0082 0.03102,-0.0066 0.04419,0 0.01863,0.0093 0.02946,0.02946 0.04419,0.04419 0.01473,0.01473 0.02946,0.02946 0.04419,0.04419 0.02946,0.02946 0.05112,0.06975 0.08839,0.08839 0.02635,0.01318 0.06044,-0.0093 0.08839,0 0.01976,0.0066 0.02485,0.03646 0.04419,0.04419 0.05639,0.02256 0.119155,0.02499 0.176777,0.04419 0.03125,0.01042 0.0578,0.03196 0.08839,0.04419 0.04325,0.0173 0.09092,0.02336 0.132583,0.04419 0.01863,0.0093 0.02556,0.03488 0.04419,0.04419 0.07096,0.03548 0.146691,0.06053 0.220971,0.08839 0.0598,0.09107 0.14971,0.02044 0.220971,0.04419 0.0625,0.02083 0.116222,0.06244 0.176776,0.08839 0.04282,0.01835 0.08933,0.02689 0.132583,0.04419 0.03058,0.01223 0.05643,0.0362 0.08839,0.04419 0.02858,0.0071 0.0608,-0.01035 0.08839,0 0.13131,0.02895 0.231215,0.127842 0.353553,0.176777 0.04325,0.0173 0.08933,0.02689 0.132582,0.04419 0.03058,0.01223 0.05893,0.02946 0.08839,0.04419 0.07366,0.02946 0.146691,0.06053 0.220971,0.08839 0.04362,0.01636 0.08933,0.02689 0.132582,0.0442 0.03058,0.01223 0.05893,0.02946 0.08839,0.04419 0.05892,0.02946 0.117851,0.05893 0.176776,0.08839 0.02946,0.01473 0.05714,0.03378 0.08839,0.04419 0.01397,0.0047 0.03022,-0.0047 0.04419,0 0.03125,0.01042 0.05545,0.04419 0.08839,0.04419 0.05893,0 -0.07366,-0.10312 0.04419,-0.04419 0.01863,0.0093 0.02556,0.03488 0.04419,0.04419 0.01318,0.0066 0.02946,0 0.04419,0 0.01473,0 0.02946,0 0.04419,0 0.01473,0 0.03022,-0.0047 0.04419,0 0.03125,0.01042 0.05714,0.03378 0.08839,0.04419 0.01398,0.0047 0.04419,-0.01473 0.04419,0 0,0.01473 -0.05893,0 -0.04419,0 0.02946,0 0.05893,0 0.08839,0 0.01473,0 0.02946,0 0.04419,0 0.01473,0 0.03378,0.01042 0.04419,0 0.01042,-0.01042 -0.01473,-0.04419 0,-0.04419 0.01473,0 -0.01473,0.04419 0,0.04419 0.02083,0 0.02556,-0.03488 0.04419,-0.04419 0.01318,-0.0066 0.02946,0 0.04419,0 0.01473,0 0.02946,0 0.0442,0 0.05892,0 0.117851,0 0.176776,0 0.01473,0 0.0442,-0.01473 0.0442,0 0,0.01473 -0.05461,0.01042 -0.0442,0 0.02329,-0.02329 0.05714,-0.03378 0.08839,-0.04419 0.01397,-0.0047 0.02946,0 0.04419,0 0.01473,0 0.02946,0 0.04419,0 0.01473,0 0.03378,0.01042 0.04419,0 0.01042,-0.01042 -0.01042,-0.03378 0,-0.04419 0.02083,-0.02083 0.06755,0.02083 0.08839,0 0.01042,-0.01042 -0.01042,-0.03378 0,-0.04419 0.01042,-0.01042 0.04419,-0.01473 0.04419,0 0,0.01473 -0.05893,0 -0.04419,0 0.02946,0 0.05892,0 0.08839,0 0.01473,0 0.02946,0 0.04419,0 0.01473,0 0.03378,0.01042 0.04419,0 0.01042,-0.01042 -0.01473,-0.04419 0,-0.04419 0.01473,0 -0.01473,0.04419 0,0.04419 0.02083,0 0.02556,-0.03488 0.04419,-0.04419 0.01318,-0.0066 0.02946,0 0.04419,0 0.01473,0 0.02946,0 0.04419,0 0.01473,0 0.04419,-0.01473 0.04419,0 0,0.01473 -0.05893,0 -0.04419,0 0.02946,0 0.05892,0 0.08839,0 0.01473,0 0.04419,-0.01473 0.04419,0 0,0.01473 -0.05892,0 -0.04419,0 0.02946,0 0.05893,0 0.08839,0 0.01473,0 0.03378,0.01042 0.04419,0 0.01042,-0.01042 -0.01473,-0.04419 0,-0.04419 0.01473,0 -0.01473,0.04419 0,0.04419 0.02083,0 0.02556,-0.03488 0.04419,-0.04419 0.01318,-0.0066 0.04419,-0.01473 0.04419,0 0,0.01473 -0.05893,0 -0.04419,0 0.05892,0 0.117851,0 0.176777,0 0.01473,0 0.04419,-0.01473 0.04419,0 0,0.01473 -0.05893,0 -0.04419,0 0.04419,0 0.08839,0 0.132582,0 0.01473,0 0.04419,-0.01473 0.04419,0 0,0.01473 -0.05893,0 -0.04419,0 0.02946,0 0.05893,0 0.08839,0 0.01473,0 0.0442,-0.01473 0.0442,0 0,0.01473 -0.05893,0 -0.0442,0 0.02946,0 0.05893,0 0.08839,0 0.01473,0 0.04419,-0.01473 0.04419,0 0,0.01473 -0.04419,0.01473 -0.04419,0 0,-0.02083 0.02556,-0.03488 0.04419,-0.0442 0.01318,-0.0066 0.02946,0 0.04419,0 0.02946,0 0.05893,0 0.08839,0 0.08839,0 0.176776,0 0.265165,0 0.01473,0 0.02946,0 0.04419,0 0.01473,0 0.03378,0.01042 0.04419,0 0.01042,-0.01042 -0.01042,-0.03378 0,-0.04419 0.01042,-0.01042 0.02946,0 0.04419,0 0.10312,0 0.20624,0 0.309359,0 0.05893,0 0.117851,0 0.176777,0 0.01473,0 0.04419,-0.01473 0.04419,0 0,0.01473 -0.05893,0 -0.04419,0 0.02946,0 0.05893,0 0.08839,0 0.01473,0 0.0442,-0.01473 0.0442,0 0,0.01473 -0.05893,0 -0.0442,0 0.250434,0 0.01473,-0.02946 0.08839,0.04419 0.01042,0.01042 0.04419,-0.01473 0.04419,0 0,0.01473 -0.04419,0.01473 -0.04419,0 0,-0.02083 0.02946,-0.02946 0.04419,-0.04419 0.0086,-0.0086 0.05587,-0.07671 0.08839,-0.04419 0.01042,0.01042 -0.01042,0.03378 0,0.04419 0.01042,0.01042 0.04419,0.01473 0.04419,0 0,-0.02083 -0.06503,-0.04419 -0.04419,-0.04419 0.03294,0 0.05714,0.03378 0.08839,0.04419 0.01397,0.0047 0.02946,0 0.04419,0 0.02946,0 0.05892,0 0.08839,0 0.01473,0 0.04419,-0.01473 0.04419,0 0,0.01473 -0.05893,0 -0.04419,0 0.02946,0 0.06204,0.01318 0.08839,0 0.01318,-0.0066 -0.01042,-0.03378 0,-0.04419 0.01042,-0.01042 0.02946,0 0.0442,0 0.01473,0 0.02946,0 0.04419,0 0.01473,0 0.03378,0.01042 0.04419,0 0.01042,-0.01042 -0.01042,-0.03378 0,-0.04419 0.01042,-0.01042 0.04419,-0.01473 0.04419,0 0,0.01473 -0.05892,0 -0.04419,0 0.08839,0 0.176777,0 0.265165,0 0.01473,0 0.03378,0.01042 0.04419,0 0.01042,-0.01042 -0.01042,-0.03378 0,-0.04419 0.02083,-0.02083 0.06756,0.02083 0.08839,0 0.01042,-0.01042 -0.01473,-0.04419 0,-0.04419 0.01473,0 -0.01473,0.04419 0,0.04419 0.02083,0 0.03488,-0.02556 0.04419,-0.04419 0.0066,-0.01318 -0.01473,-0.0442 0,-0.0442 0.01473,0 -0.01473,0.0442 0,0.0442 0.02083,0 0.02556,-0.03488 0.04419,-0.0442 0.01318,-0.0066 0.03378,0.01042 0.04419,0 0.01042,-0.01042 -0.01473,-0.04419 0,-0.04419 0.01473,0 -0.01473,0.04419 0,0.04419 0.09196,0 0.01778,-0.06198 0.04419,-0.08839 0.02083,-0.02083 0.06756,0.02083 0.08839,0 0.01042,-0.01042 -0.01042,-0.03378 0,-0.04419 0.01042,-0.01042 0.03378,0.01042 0.04419,0 0.01042,-0.01042 -0.01042,-0.03378 0,-0.04419 0.01042,-0.01042 0.02946,0 0.04419,0 0.01473,0 0.02946,0 0.04419,0 0.01473,0 0.04419,-0.01473 0.04419,0 0,0.01473 -0.05892,0 -0.04419,0 0.04419,0 0.08839,0 0.132583,0 0.01473,0 0.04419,-0.01473 0.04419,0 0,0.01473 -0.05893,0 -0.04419,0 0.02946,0 0.05892,0 0.08839,0 0.01473,0 0.04419,-0.01473 0.04419,0 0,0.01473 -0.04419,0.01473 -0.04419,0 0,-0.02083 0.02556,-0.03488 0.04419,-0.04419 0.01318,-0.0066 0.02946,0 0.04419,0 0.01473,0 0.02946,0 0.0442,0 0.01473,0 0.03378,0.01042 0.04419,0 0.01042,-0.01042 -0.01473,-0.04419 0,-0.04419 0.01473,0 -0.01473,0.04419 0,0.04419 0.09196,0 0.01778,-0.06198 0.04419,-0.08839 0.01042,-0.01042 0.03378,0.01042 0.04419,0 0.01042,-0.01042 0,-0.02946 0,-0.04419 0,-0.01473 0,-0.02946 0,-0.04419 0,-0.01473 -0.0066,-0.03102 0,-0.04419 0.02731,-0.05461 0.04267,-0.04419 0.08839,-0.04419 0.01473,0 0.03378,0.01042 0.04419,0 0.01042,-0.01042 -0.01473,-0.04419 0,-0.04419 0.01321,0 -0.02909,0.146574 0.04419,0 0.0066,-0.01318 -0.01473,-0.04419 0,-0.04419 0.01321,0 -0.02909,0.146574 0.04419,0 0.0066,-0.01318 0,-0.02946 0,-0.04419 0,-0.01473 0,-0.02946 0,-0.04419 0,-0.04419 0,-0.08839 0,-0.132583 0,-0.01473 0.01042,-0.03378 0,-0.04419 -0.01042,-0.01042 -0.03378,0.01042 -0.04419,0 -0.01042,-0.01042 0,-0.02946 0,-0.04419 0,-0.01473 0,-0.02946 0,-0.04419 0,-0.01473 -0.01042,-0.03378 0,-0.04419 0.01042,-0.01042 0.03378,0.01042 0.04419,0 0.01042,-0.01042 -0.01042,-0.03378 0,-0.0442 0.01042,-0.01042 0.03378,-0.01042 0.04419,0 0.01042,0.01042 -0.01042,0.03378 0,0.0442 0.01042,0.01042 0.03378,0.01042 0.04419,0 0.01042,-0.01042 -0.01473,-0.0442 0,-0.0442 0.01473,0 0,0.02946 0,0.0442 0.01473,-0.01473 0.02556,-0.03488 0.04419,-0.0442 0.01318,-0.0066 0.04419,-0.01473 0.04419,0 0,0.01473 -0.05893,0 -0.04419,0 0.05893,0 0.117851,0 0.176776,0 0.01473,0 0.02946,0 0.04419,0 0.01473,0 0.04419,-0.01473 0.04419,0 0,0.01473 -0.05893,0 -0.04419,0 0.250434,0 0.01473,0.02946 0.08839,-0.04419 0.01042,-0.01042 0.02946,0 0.04419,0 0.01473,0 0.02946,0 0.04419,0 0.01473,0 0.03378,0.01042 0.04419,0 0.01042,-0.01042 -0.01042,-0.03378 0,-0.04419 0.01042,-0.01042 0.04419,-0.01473 0.04419,0 0,0.01473 -0.05892,0 -0.04419,0 0.05893,0 0.117851,0 0.176777,0 0.162045,0 0.324091,0 0.486136,0 0.168816,0 0.0069,-0.0093 0.220971,0.04419 0.01429,0.0036 0.02946,0 0.04419,0 0.02946,0 0.05893,0 0.08839,0 0.04419,0 0.08925,-0.0087 0.132583,0 0.0323,0.0065 0.05609,0.03773 0.08839,0.04419 0.0038,7.64e-4 0.259106,-7.57e-4 0.265165,0 0.07454,0.0093 0.146878,0.03185 0.220971,0.0442 0.01453,0.0024 0.02946,0 0.04419,0 0.08839,0 0.176777,0 0.265165,0 0.147314,0 0.294628,0 0.441942,0 0.05893,0 0.117851,0 0.176777,0 0.05893,0 0.118306,0.0073 0.176777,0 0.06027,-0.0075 0.116247,-0.03915 0.176776,-0.0442 0.117444,-0.0098 0.23651,0.01377 0.353554,0 0.134886,-0.01587 0.263296,-0.06918 0.397747,-0.08839 0.07292,-0.01042 0.147765,0.0081 0.220971,0 0.06037,-0.0067 0.116744,-0.03496 0.176777,-0.04419 0.131847,-0.02028 0.2659,-0.02391 0.397747,-0.04419 0.06003,-0.0092 0.117852,-0.02946 0.176777,-0.04419 0.05893,-0.01473 0.118375,-0.02751 0.176777,-0.0442 0.04479,-0.0128 0.08764,-0.03194 0.132582,-0.04419 0.175797,-0.04794 0.353554,-0.08839 0.53033,-0.132582 0.05893,-0.01473 0.119695,-0.02344 0.176777,-0.04419 0.105436,-0.03834 0.206838,-0.08702 0.309359,-0.132582 0.0301,-0.01338 0.05893,-0.02946 0.08839,-0.04419 0.02946,-0.01473 0.05684,-0.03473 0.08839,-0.04419 0.33525,-0.100575 0.321672,-0.05796 0.618719,-0.176777 0.06117,-0.02447 0.11509,-0.06526 0.176776,-0.08839 0.05687,-0.02133 0.117851,-0.02946 0.176777,-0.04419 0.132582,-0.07366 0.258342,-0.161225 0.397748,-0.220971 0.06904,-0.02959 0.147643,-0.0279 0.22097,-0.04419 0.05929,-0.01318 0.119905,-0.02287 0.176777,-0.04419 0.06169,-0.02313 0.114277,-0.06755 0.176777,-0.08839 0.07126,-0.02375 0.147644,-0.0279 0.220971,-0.04419 0.05929,-0.01318 0.118374,-0.02751 0.176776,-0.0442 0.04479,-0.0128 0.08839,-0.02946 0.132583,-0.04419 0.132582,-0.04419 0.265165,-0.08839 0.397747,-0.132582 0.0442,-0.01473 0.08779,-0.0314 0.132583,-0.04419 0.116804,-0.03337 0.236356,-0.05643 0.353553,-0.08839 0.577911,-0.157612 0.0863,-0.03262 0.486136,-0.132582 0.05893,-0.01473 0.117851,-0.02946 0.176777,-0.04419 0.05893,-0.01473 0.119155,-0.02499 0.176777,-0.04419 0.119406,-0.0398 0.235266,-0.08957 0.353553,-0.132582 0.04378,-0.01592 0.08976,-0.02584 0.132583,-0.04419 0.542358,-0.23244 -0.13448,0.04514 0.309359,-0.176777 0.07096,-0.03548 0.152092,-0.04903 0.220971,-0.08839 0.03618,-0.02067 0.05893,-0.05893 0.08839,-0.08839 0.01473,-0.01473 0.02946,-0.02946 0.04419,-0.04419 0.01473,-0.01473 0.02753,-0.03169 0.0442,-0.04419 0.04249,-0.03187 0.09502,-0.05083 0.132582,-0.08839 0.03756,-0.03756 0.05893,-0.08839 0.08839,-0.132582 0.05712,-0.08568 0.148742,-0.211235 0.176777,-0.309359 0.01214,-0.04249 0,-0.08839 0,-0.132583 0,-0.01473 0,-0.02946 0,-0.04419 0,-0.05893 0.01054,-0.118802 0,-0.176777 -0.25227,-0.882947 -0.0072,0.08191 -0.08839,-0.486136 -0.0065,-0.04574 -0.05736,-0.174423 -0.08839,-0.22097 -0.01156,-0.01734 -0.03386,-0.02611 -0.04419,-0.0442 -0.422771,-0.845542 0.06544,0.103468 -0.220971,-0.397747 -0.03269,-0.0572 -0.0501,-0.123168 -0.08839,-0.176777 -0.03633,-0.05086 -0.08839,-0.08839 -0.132583,-0.132582 -0.08839,-0.08839 -0.176776,-0.176777 -0.265165,-0.265166 -0.04419,-0.04419 -0.08839,-0.08839 -0.132582,-0.132582 -0.02946,-0.02946 -0.05638,-0.06171 -0.08839,-0.08839 -0.08589,-0.07157 -0.44763,-0.325549 -0.486136,-0.353554 -0.05957,-0.04332 -0.114316,-0.09354 -0.176777,-0.132582 -0.05587,-0.03492 -0.123167,-0.0501 -0.176777,-0.08839 -0.05086,-0.03633 -0.07985,-0.09903 -0.132582,-0.132582 -0.111163,-0.07074 -0.235703,-0.117851 -0.353554,-0.176777 -0.147314,-0.07366 -0.294628,-0.147314 -0.441942,-0.220971 -0.583853,-0.291926 -0.289019,-0.159802 -0.883883,-0.397747 -0.147314,-0.05893 -0.289727,-0.132008 -0.441942,-0.176777 -0.09993,-0.02939 -0.2092,-0.01558 -0.309359,-0.04419 C 32.065252,11.950973 31.973168,11.874074 31.863767,11.84921 31.646384,11.7998 31.420747,11.79747 31.200854,11.76082 31.066885,11.73849 30.937075,11.69476 30.803107,11.67243 30.671523,11.6505 30.536473,11.65282 30.405359,11.62824 30.29995,11.60848 30.200865,11.56232 30.096,11.53985 29.994145,11.51802 29.889532,11.5119 29.78664,11.49566 c -0.177022,-0.02795 -0.35428,-0.05485 -0.53033,-0.08839 -0.133418,-0.02541 -0.262761,-0.07339 -0.397747,-0.08839 -0.131772,-0.01464 -0.265369,0.0074 -0.397748,0 -0.133193,-0.0074 -0.265108,-0.02998 -0.397747,-0.04419 -0.279842,-0.02998 -0.558914,-0.06902 -0.83969,-0.08839 -0.146965,-0.01014 -0.294628,0 -0.441941,0 -0.132583,0 -0.265166,0 -0.397748,0 -0.162045,0 -0.324091,0 -0.486136,0 -0.250434,0 -0.501355,-0.01562 -0.751301,0 -0.222492,0.01391 -0.44048,0.07356 -0.662913,0.08839 -0.220481,0.0147 -0.442231,-0.01132 -0.662912,0 -0.354314,0.01817 -0.706428,0.06871 -1.06066,0.08839 -0.176505,0.0098 -0.353721,-0.0077 -0.530331,0 -0.16256,0.0071 -0.323625,0.03607 -0.486136,0.04419 -1.040531,0.05203 0.510779,-0.144944 -1.414213,0.08839 -0.14914,0.01808 -0.294134,0.06151 -0.441942,0.08839 -0.176324,0.03206 -0.353553,0.05893 -0.53033,0.08839 -0.176777,0.02946 -0.352758,0.06417 -0.53033,0.08839 -0.700039,0.09546 -0.49145,-0.02077 -1.458408,0.220971 -0.379643,0.09491 -0.531414,0.250614 -0.883883,0.309359 -0.24873,0.04146 -0.501863,0.05143 -0.751301,0.08839 -0.664957,0.09851 -0.224131,0.06574 -0.883884,0.220971 -0.603023,0.141888 -0.121098,-0.137504 -1.06066,0.265165 -0.0766,0.03283 -0.114493,0.121413 -0.176777,0.176777 -0.0705,0.06267 -0.140636,0.12734 -0.220971,0.176777 -0.112216,0.06906 -0.238713,0.112179 -0.353553,0.176776 -0.09212,0.05182 -0.506609,0.316214 -0.618719,0.397748 -0.178906,0.130114 -0.49007,0.410258 -0.618718,0.53033 -0.09138,0.08529 -0.173021,0.1807 -0.265165,0.265165 -0.08481,0.07775 -0.18777,0.135837 -0.265165,0.220971 -0.07146,0.0786 -0.108159,0.184071 -0.176777,0.265165 -0.0942,0.111327 -0.21926,0.194688 -0.309359,0.309359 -0.07338,0.09339 -0.113013,0.209159 -0.176777,0.309359 -0.03954,0.06214 -0.08736,0.118636 -0.132582,0.176777 -0.111412,0.143244 -0.267746,0.298876 -0.30936,0.486136 -0.0101,0.04548 0.02336,0.09092 0.0442,0.132583 0.08839,0.176776 0.07366,0.103119 0.22097,0.220971 0.03254,0.02603 0.05506,0.06339 0.08839,0.08839 0.02635,0.01976 0.06014,0.02725 0.08839,0.04419 0.154309,0.09258 0.09713,0.09058 0.265165,0.132583 0.01429,0.0036 0.02946,0 0.04419,0 0.05893,0 0.117852,0 0.176777,0 0.08839,0 0.177317,0.0098 0.265165,0 0.0463,-0.0051 0.08663,-0.03654 0.132583,-0.04419 0.04359,-0.0073 0.08839,0 0.132582,0 0.08839,-0.01473 0.177692,-0.02475 0.265165,-0.04419 0.09095,-0.02021 0.173805,-0.07012 0.265165,-0.08839 0.02889,-0.0058 0.05893,0 0.08839,0 0.01473,0 0.03102,0.0066 0.04419,0 0.01863,-0.0093 0.02556,-0.03488 0.04419,-0.04419 0.01318,-0.0066 0.02946,0 0.04419,0 0.01473,0 0.02946,0 0.04419,0 0.02946,0 0.06131,0.01161 0.08839,0 0.07895,-0.03384 0.147314,-0.08839 0.220971,-0.132583 z"
         id="path4431-3-6"
         inkscape:connector-curvature="0" />
    </clipPath>
  </defs>
  <sodipodi:namedview
     id="base"
     pagecolor="#ffffff"
     bordercolor="#666666"
     borderopacity="1.0"
     inkscape:pageopacity="0.0"
     inkscape:pageshadow="2"
     inkscape:zoom="7"
     inkscape:cx="38.027454"
     inkscape:cy="24"
     inkscape:current-layer="layer1"
     showgrid="true"
     inkscape:grid-bbox="true"
     inkscape:document-units="px"
     inkscape:window-width="1366"
     inkscape:window-height="744"
     inkscape:window-x="0"
     inkscape:window-y="24"
     inkscape:window-maximized="1" />
  <metadata
     id="metadata15339">
    <rdf:RDF>
      <cc:Work
         rdf:about="">
        <dc:format>image/svg+xml</dc:format>
        <dc:type
           rdf:resource="http://purl.org/dc/dcmitype/StillImage" />
        <dc:title></dc:title>
      </cc:Work>
    </rdf:RDF>
  </metadata>
  <g
     id="layer1"
     inkscape:label="Layer 1"
     inkscape:groupmode="layer">
    <rect
       style="fill:#ffc1f7;fill-opacity:1;fill-rule:nonzero;stroke:#000000;stroke-width:0.1;stroke-miterlimit:4;stroke-opacity:1;stroke-dasharray:none"
       id="rect8010"
       width="48.348423"
       height="47.994869"
       x="0.25436074"
       y="0.28827962" />
    <path
       transform="translate(3.2493521,-1.5353549)"
       sodipodi:type="arc"
       style="opacity:0.58436213;fill:none;stroke:#e92626;stroke-opacity:0"
       id="path6451"
       sodipodi:cx="23.327759"
       sodipodi:cy="30.250175"
       sodipodi:rx="10.069507"
       sodipodi:ry="3.9937081"
       d="m 33.397265,30.250175 a 10.069507,3.9937081 0 1 1 -20.139013,0 10.069507,3.9937081 0 1 1 20.139013,0 z" />
    <path
       style="fill:none;stroke:#000000;stroke-width:1px;stroke-linecap:butt;stroke-linejoin:miter;stroke-opacity:1"
       d="m 18.853916,23.77185 2.872621,3.137787"
       id="path4176"
       inkscape:connector-curvature="0" />
    <path
       style="fill:none;stroke:#000000;stroke-width:1px;stroke-linecap:butt;stroke-linejoin:miter;stroke-opacity:1"
       d="m 21.152013,26.998025 6.761708,-6.584931"
       id="path4198"
       inkscape:connector-curvature="0"
       inkscape:transform-center-x="0.44194174" />
    <path
       transform="translate(2.5034071,-1.3587319)"
       sodipodi:type="arc"
       style="opacity:0.58436213;fill:none;stroke:#e92626;stroke-opacity:0"
       id="path6451-8"
       sodipodi:cx="23.327759"
       sodipodi:cy="30.250175"
       sodipodi:rx="10.069507"
       sodipodi:ry="3.9937081"
       d="m 33.397265,30.250175 a 10.069507,3.9937081 0 1 1 -20.139013,0 10.069507,3.9937081 0 1 1 20.139013,0 z" />
    <rect
       id="rect6933"
       width="19.02446"
       height="14.368984"
       x="14.31718"
       y="15.458891"
       style="fill:none;stroke:#000000;stroke-width:0.1;stroke-miterlimit:4;stroke-opacity:1;stroke-dasharray:none"
       clip-path="url(#clipPath4429-8-7)"
       transform="translate(4.0610475,-1.2355229)" />
    <rect
       style="opacity:0.5020576;fill:none;stroke:none"
       id="rect4250"
       width="4.9156852"
       height="12.65764"
       x="15.89424"
       y="16.93412" />
    <path
       transform="translate(2.5034071,-1.3587319)"
       sodipodi:type="arc"
       style="opacity:0.5020576;fill:none;stroke:none"
       id="path4327"
       sodipodi:cx="22.883142"
       sodipodi:cy="21.478811"
       sodipodi:rx="9.0503645"
       sodipodi:ry="6.9338026"
       d="m 31.933507,21.478811 a 9.0503645,6.9338026 0 1 1 -18.100729,0 9.0503645,6.9338026 0 1 1 18.100729,0 z" />
    <rect
       id="rect6933-7"
       width="19.02446"
       height="14.368984"
       x="20.160944"
       y="18.406294"
       style="fill:none;stroke:#000000;stroke-width:0.1;stroke-miterlimit:4;stroke-opacity:1;stroke-dasharray:none"
       clip-path="url(#clipPath4464-3-7)"
       transform="translate(-1.7827169,-4.3298339)" />
    <rect
       id="rect6933-4-9"
       width="19.02446"
       height="14.368984"
       x="13.74017"
       y="16.700966"
       style="fill:none;stroke:#000000;stroke-width:0.1;stroke-miterlimit:4;stroke-opacity:1;stroke-dasharray:none" />
    <g
       id="g8615"
       transform="translate(2.5904591,-18.08516)"
       style="opacity:0.181">
      <path
         inkscape:connector-curvature="0"
         id="path4176-7"
         d="m 16.771688,41.879107 2.872621,3.137787"
         style="fill:none;stroke:#000000;stroke-width:1px;stroke-linecap:butt;stroke-linejoin:miter;stroke-opacity:1" />
      <path
         inkscape:transform-center-x="0.44194174"
         inkscape:connector-curvature="0"
         id="path4198-6"
         d="M 19.069785,45.105282 25.831494,38.52035"
         style="fill:none;stroke:#000000;stroke-width:1px;stroke-linecap:butt;stroke-linejoin:miter;stroke-opacity:1" />
    </g>
  </g>
</svg>
