<?xml version="1.0" encoding="UTF-8" standalone="no"?>
<svg
   xmlns:dc="http://purl.org/dc/elements/1.1/"
   xmlns:cc="http://creativecommons.org/ns#"
   xmlns:rdf="http://www.w3.org/1999/02/22-rdf-syntax-ns#"
   xmlns:svg="http://www.w3.org/2000/svg"
   xmlns="http://www.w3.org/2000/svg"
   xmlns:xlink="http://www.w3.org/1999/xlink"
   xmlns:sodipodi="http://sodipodi.sourceforge.net/DTD/sodipodi-0.dtd"
   xmlns:inkscape="http://www.inkscape.org/namespaces/inkscape"
   version="1.1"
   x="0px"
   y="0px"
   width="480px"
   height="480px"
   viewBox="0 0 480 480"
   xml:space="preserve"
   id="svg3910"
   inkscape:version="0.48.3.1 r9886"
   sodipodi:docname="mic4.svg"><metadata
   id="metadata3921"><rdf:RDF><cc:Work
       rdf:about=""><dc:format>image/svg+xml</dc:format><dc:type
         rdf:resource="http://purl.org/dc/dcmitype/StillImage" /><dc:title></dc:title></cc:Work></rdf:RDF></metadata><defs
   id="defs3919"><linearGradient
     inkscape:collect="always"
     xlink:href="#linearGradient6688"
     id="linearGradient6696"
     x1="122.606"
     y1="235.9995"
     x2="351.84201"
     y2="235.9995"
     gradientUnits="userSpaceOnUse" /><linearGradient
     inkscape:collect="always"
     id="linearGradient6688"><stop
       style="stop-color:#ffffff;stop-opacity:1;"
       offset="0"
       id="stop6690" /><stop
       style="stop-color:#ffffff;stop-opacity:0;"
       offset="1"
       id="stop6692" /></linearGradient><linearGradient
     inkscape:collect="always"
     xlink:href="#linearGradient6688"
     id="linearGradient6712"
     x1="122.606"
     y1="235.9995"
     x2="351.84201"
     y2="235.9995"
     gradientUnits="userSpaceOnUse" /><linearGradient
     inkscape:collect="always"
     xlink:href="#linearGradient6688"
     id="linearGradient6720"
     x1="122.606"
     y1="235.9995"
     x2="351.84201"
     y2="235.9995"
     gradientUnits="userSpaceOnUse" /><linearGradient
     y2="235.9995"
     x2="351.84201"
     y1="235.9995"
     x1="122.606"
     gradientUnits="userSpaceOnUse"
     id="linearGradient6735"
     xlink:href="#linearGradient6688"
     inkscape:collect="always" /></defs><sodipodi:namedview
   pagecolor="#ffffff"
   bordercolor="#666666"
   borderopacity="1"
   objecttolerance="10"
   gridtolerance="10"
   guidetolerance="10"
   inkscape:pageopacity="0"
   inkscape:pageshadow="2"
   inkscape:window-width="1366"
   inkscape:window-height="744"
   id="namedview3917"
   showgrid="false"
   inkscape:zoom="0.49166667"
   inkscape:cx="-117.9661"
   inkscape:cy="240"
   inkscape:window-x="0"
   inkscape:window-y="24"
   inkscape:window-maximized="1"
   inkscape:current-layer="svg3910" />
  
<path
   transform="matrix(34.338315,0,0,33.777878,-11.661651,-94.763587)"
   sodipodi:type="arc"
   style="fill:#d2423a;fill-opacity:1;fill-rule:nonzero;stroke:none"
   id="path5960"
   sodipodi:cx="7.3881187"
   sodipodi:cy="9.9408417"
   sodipodi:rx="6.9826732"
   sodipodi:ry="7.1403465"
   d="m 14.370792,9.9408417 a 6.9826732,7.1403465 0 1 1 -13.96534642,0 6.9826732,7.1403465 0 1 1 13.96534642,0 z" /><g
   transform="translate(-686.71553,67.051347)"
   id="mic"
   style="fill:#ffffff;fill-opacity:0"><path
     inkscape:connector-curvature="0"
     d="m 290.991,240.991 c 0,26.392 -21.602,47.999 -48.002,47.999 H 231.46 c -26.4,0 -48.002,-21.607 -48.002,-47.999 V 104.002 c 0,-26.4 21.602,-48.004 48.002,-48.004 h 11.529 c 26.4,0 48.002,21.604 48.002,48.004 v 136.989 z"
     id="path3913"
     style="fill:#ffffff;fill-opacity:0" /><path
     inkscape:connector-curvature="0"
     d="m 342.381,209.85 h -8.961 c -4.932,0 -8.961,4.034 -8.961,8.961 v 8.008 c 0,50.26 -37.109,91.001 -87.361,91.001 -50.26,0 -87.109,-40.741 -87.109,-91.001 v -8.008 c 0,-4.927 -4.029,-8.961 -8.961,-8.961 h -8.961 c -4.924,0 -8.961,4.034 -8.961,8.961 v 8.008 c 0,58.862 40.229,107.625 96.07,116.362 v 36.966 h -34.412 c -4.932,0 -8.961,4.039 -8.961,8.971 v 17.922 c 0,4.923 4.029,8.961 8.961,8.961 h 104.688 c 4.926,0 8.961,-4.038 8.961,-8.961 v -17.922 c 0,-4.932 -4.035,-8.971 -8.961,-8.971 h -34.43 v -36.966 c 55.889,-8.729 96.32,-57.5 96.32,-116.362 v -8.008 c 0,-4.927 -4.039,-8.961 -8.961,-8.961 z"
     id="path3915"
     style="fill:#ffffff;fill-opacity:0" /></g><g
   transform="translate(4.8098985,1.9666018)"
   id="mic-3"
   style="fill:#ffffff;fill-opacity:1"><path
     inkscape:connector-curvature="0"
     d="m 290.991,240.991 c 0,26.392 -21.602,47.999 -48.002,47.999 H 231.46 c -26.4,0 -48.002,-21.607 -48.002,-47.999 V 104.002 c 0,-26.4 21.602,-48.004 48.002,-48.004 h 11.529 c 26.4,0 48.002,21.604 48.002,48.004 v 136.989 z"
     id="path6899"
     style="fill:#ffffff;fill-opacity:1" /><path
     inkscape:connector-curvature="0"
     d="m 342.381,209.85 h -8.961 c -4.932,0 -8.961,4.034 -8.961,8.961 v 8.008 c 0,50.26 -37.109,91.001 -87.361,91.001 -50.26,0 -87.109,-40.741 -87.109,-91.001 v -8.008 c 0,-4.927 -4.029,-8.961 -8.961,-8.961 h -8.961 c -4.924,0 -8.961,4.034 -8.961,8.961 v 8.008 c 0,58.862 40.229,107.625 96.07,116.362 v 36.966 h -34.412 c -4.932,0 -8.961,4.039 -8.961,8.971 v 17.922 c 0,4.923 4.029,8.961 8.961,8.961 h 104.688 c 4.926,0 8.961,-4.038 8.961,-8.961 v -17.922 c 0,-4.932 -4.035,-8.971 -8.961,-8.971 h -34.43 v -36.966 c 55.889,-8.729 96.32,-57.5 96.32,-116.362 v -8.008 c 0,-4.927 -4.039,-8.961 -8.961,-8.961 z"
     id="path6901"
     style="fill:#ffffff;fill-opacity:1" /></g></svg>